<svg width="98" height="65" viewBox="0 0 98 65" fill="none" xmlns="http://www.w3.org/2000/svg">
<path fill-rule="evenodd" clip-rule="evenodd" d="M42.7035 59.5648H42.6704C42.6853 59.5648 42.6953 59.5796 42.7102 59.5829C42.7118 59.5829 42.7184 59.5813 42.7201 59.5813L42.7035 59.5648ZM42.7102 59.5829C42.5561 59.5846 42.1683 59.6639 41.7591 59.6639C40.4666 59.6639 40.0193 59.0694 40.0193 58.2932V53.1239H42.6538C42.803 53.1239 42.9189 52.9918 42.9189 52.8101V50.0026C42.9189 49.8539 42.7864 49.7218 42.6538 49.7218H40.0193V46.2371C40.0193 46.105 39.9364 46.0224 39.7873 46.0224H36.2082C36.0591 46.0224 35.9763 46.105 35.9763 46.2371V49.8209C35.9763 49.8209 34.1702 50.2668 34.0542 50.2833C33.9216 50.3164 33.8388 50.432 33.8388 50.5641V52.8101C33.8388 52.9918 33.9713 53.1239 34.1205 53.1239H35.9597V58.5409C35.9597 62.5706 38.7765 62.9835 40.6986 62.9835C41.5768 62.9835 42.6373 62.7027 42.803 62.6202C42.9024 62.5871 42.9521 62.4715 42.9521 62.3559V59.8786C42.9521 59.7151 42.8394 59.6061 42.7102 59.5829ZM81.9729 55.9481C81.9729 52.9588 80.7635 52.5625 79.4879 52.6946C78.4938 52.7606 77.6986 53.2561 77.6986 53.2561V59.0694C77.6986 59.0694 78.5104 59.631 79.7198 59.664C81.4262 59.7135 81.9729 59.1025 81.9729 55.9481ZM86 55.6838C86 61.3485 84.1608 62.967 80.9463 62.967C78.2288 62.967 76.7707 61.5962 76.7707 61.5962C76.7707 61.5962 76.7044 62.3559 76.6216 62.455C76.5719 62.5541 76.489 62.5871 76.3896 62.5871H73.9373C73.7716 62.5871 73.6225 62.455 73.6225 62.3064L73.6556 43.958C73.6556 43.8094 73.7882 43.6772 73.9373 43.6772H77.4666C77.6158 43.6772 77.7483 43.8094 77.7483 43.958V50.1842C77.7483 50.1842 79.107 49.3089 81.0954 49.3089L81.0788 49.2759C83.0672 49.2759 86 50.0191 86 55.6838ZM71.5513 49.7218H68.0717C67.8894 49.7218 67.79 49.8539 67.79 50.0356V59.0198C67.79 59.0198 66.8786 59.6639 65.6359 59.6639C64.3932 59.6639 64.0287 59.1024 64.0287 57.8638V50.0191C64.0287 49.8704 63.8961 49.7383 63.747 49.7383H60.2011C60.0519 49.7383 59.9194 49.8704 59.9194 50.0191V58.4583C59.9194 62.0917 61.9575 63 64.7577 63C67.0609 63 68.9333 61.7283 68.9333 61.7283C68.9333 61.7283 69.0161 62.3724 69.0658 62.4715C69.099 62.5541 69.215 62.6201 69.3309 62.6201H71.5513C71.7335 62.6201 71.833 62.488 71.833 62.3394L71.8661 50.0025C71.8661 49.8539 71.7335 49.7218 71.5513 49.7218ZM32.2807 49.7053H28.7519C28.6028 49.7053 28.4702 49.8539 28.4702 50.0356V62.1577C28.4702 62.488 28.6856 62.6036 28.9672 62.6036H32.1481C32.4795 62.6036 32.5623 62.455 32.5623 62.1577V49.986C32.5623 49.8374 32.4298 49.7053 32.2807 49.7053ZM30.5411 44.1232C29.2654 44.1232 28.2548 45.1306 28.2548 46.4023C28.2548 47.674 29.2654 48.6814 30.5411 48.6814C31.7836 48.6814 32.7942 47.674 32.7942 46.4023C32.7942 45.1306 31.7836 44.1232 30.5411 44.1232ZM57.8648 43.7103H54.3686C54.2194 43.7103 54.0869 43.8424 54.0869 43.9911V50.7458H48.6023V43.9911C48.6023 43.8424 48.4698 43.7103 48.3207 43.7103H44.7913C44.6422 43.7103 44.5096 43.8424 44.5096 43.9911V62.3394C44.5096 62.4881 44.6588 62.6202 44.7913 62.6202H48.3207C48.4698 62.6202 48.6023 62.4881 48.6023 62.3394V54.4947H54.0869L54.0537 62.3394C54.0537 62.4881 54.1863 62.6202 54.3354 62.6202H57.8648C58.0139 62.6202 58.1464 62.4881 58.1464 62.3394V43.9911C58.1464 43.8424 58.0139 43.7103 57.8648 43.7103ZM26.5979 51.8357V61.3155C26.5979 61.3815 26.5813 61.4971 26.4984 61.5301C26.4984 61.5301 24.4272 63 21.0139 63C16.888 63 12 61.7118 12 53.223C12 44.7342 16.275 42.9836 20.4505 43.0001C24.0627 43.0001 25.5208 43.8094 25.7528 43.958C25.8191 44.0406 25.8522 44.1066 25.8522 44.1892L25.1563 47.1289C25.1563 47.2775 25.0072 47.4592 24.8249 47.4097C24.2284 47.228 23.3336 46.8647 21.2293 46.8647C18.7936 46.8647 16.1755 47.5583 16.1755 53.0248C16.1755 58.4914 18.661 59.1354 20.4505 59.1354C21.9749 59.1354 22.5217 58.9538 22.5217 58.9538V55.1553H20.086C19.9037 55.1553 19.7712 55.0232 19.7712 54.8745V51.8357C19.7712 51.6871 19.9037 51.555 20.086 51.555H26.283C26.4653 51.555 26.5979 51.6871 26.5979 51.8357Z" fill="black"/>
<path fill-rule="evenodd" clip-rule="evenodd" d="M49.2667 0C39.7268 0 32 7.56386 32 16.9025C32 24.3818 36.9426 30.6991 43.8061 32.9387C44.6694 33.0866 44.9932 32.5795 44.9932 32.1359C44.9932 31.7344 44.9716 30.4033 44.9716 28.9878C40.6333 29.7695 39.511 27.9525 39.1657 27.0017C38.9714 26.5158 38.1297 25.0157 37.3958 24.6142C36.7915 24.2973 35.9282 23.5156 37.3742 23.4945C38.734 23.4733 39.7052 24.7199 40.029 25.227C41.583 27.7835 44.0651 27.0651 45.0579 26.6214C45.209 25.5228 45.6623 24.7833 46.1587 24.3607C42.3168 23.9381 38.3023 22.4803 38.3023 16.0151C38.3023 14.177 38.9714 12.6557 40.0722 11.4726C39.8995 11.05 39.2952 9.3175 40.2448 6.9934C40.2448 6.9934 41.6909 6.54971 44.9932 8.72591C46.3745 8.3456 47.8422 8.15545 49.3098 8.15545C50.7775 8.15545 52.2452 8.3456 53.6265 8.72591C56.9287 6.52859 58.3748 6.9934 58.3748 6.9934C59.3245 9.3175 58.7202 11.05 58.5475 11.4726C59.6482 12.6557 60.3173 14.1558 60.3173 16.0151C60.3173 22.5014 56.2813 23.9381 52.4394 24.3607C53.0653 24.8889 53.6049 25.9031 53.6049 27.4877C53.6049 29.7484 53.5833 31.5654 53.5833 32.1359C53.5833 32.5795 53.9071 33.1077 54.7704 32.9387C61.5907 30.6991 66.5333 24.3607 66.5333 16.9025C66.5333 7.56386 58.8065 0 49.2667 0V0Z" fill="black"/>
</svg>
