<svg width="98" height="65" viewBox="0 0 98 65" fill="none" xmlns="http://www.w3.org/2000/svg">
<path fill-rule="evenodd" clip-rule="evenodd" d="M40.6614 58.5854H40.6176C40.6373 58.5854 40.6505 58.605 40.6702 58.6094C40.6724 58.6094 40.6812 58.6072 40.6834 58.6072L40.6614 58.5854ZM40.6702 58.6094C40.4661 58.6116 39.9527 58.7162 39.4107 58.7162C37.6991 58.7162 37.1066 57.9321 37.1066 56.9084V50.091H40.5956C40.7931 50.091 40.9467 49.9167 40.9467 49.6772V45.9744C40.9467 45.7784 40.7712 45.6041 40.5956 45.6041H37.1066V41.0084C37.1066 40.8341 36.9969 40.7252 36.7994 40.7252H32.0596C31.8621 40.7252 31.7523 40.8341 31.7523 41.0084V45.7348C31.7523 45.7348 29.3605 46.3229 29.2069 46.3447C29.0313 46.3882 28.9216 46.5407 28.9216 46.715V49.6772C28.9216 49.9167 29.0972 50.091 29.2947 50.091H31.7304V57.2351C31.7304 62.5497 35.4608 63.0942 38.0063 63.0942C39.1693 63.0942 40.5737 62.7239 40.7931 62.615C40.9248 62.5714 40.9906 62.419 40.9906 62.2665V58.9994C40.9906 58.7837 40.8414 58.6399 40.6702 58.6094ZM92.6669 53.8156C92.6669 49.8732 91.0652 49.3505 89.3758 49.5247C88.0594 49.6119 87.0063 50.2653 87.0063 50.2653V57.9322C87.0063 57.9322 88.0813 58.6727 89.683 58.7163C91.9428 58.7816 92.6669 57.9757 92.6669 53.8156ZM98 53.467C98 60.9379 95.5643 63.0724 91.3072 63.0724C87.7085 63.0724 85.7774 61.2646 85.7774 61.2646C85.7774 61.2646 85.6897 62.2665 85.5799 62.3972C85.5141 62.5279 85.4044 62.5714 85.2727 62.5714H82.0251C81.8056 62.5714 81.6082 62.3972 81.6082 62.2012L81.652 38.0026C81.652 37.8066 81.8276 37.6323 82.0251 37.6323H86.6991C86.8966 37.6323 87.0721 37.8066 87.0721 38.0026V46.214C87.0721 46.214 88.8715 45.0596 91.5047 45.0596L91.4828 45.016C94.116 45.016 98 45.9962 98 53.467ZM78.8652 45.6041H74.2571C74.0157 45.6041 73.884 45.7784 73.884 46.0179V57.8667C73.884 57.8667 72.6771 58.7162 71.0313 58.7162C69.3856 58.7162 68.9028 57.9757 68.9028 56.3421V45.9962C68.9028 45.8001 68.7273 45.6259 68.5298 45.6259H63.8338C63.6364 45.6259 63.4608 45.8001 63.4608 45.9962V57.1262C63.4608 61.918 66.1599 63.1159 69.8683 63.1159C72.9185 63.1159 75.3981 61.4388 75.3981 61.4388C75.3981 61.4388 75.5078 62.2883 75.5737 62.419C75.6176 62.5279 75.7712 62.615 75.9248 62.615H78.8652C79.1066 62.615 79.2382 62.4407 79.2382 62.2447L79.2821 45.9744C79.2821 45.7784 79.1066 45.6041 78.8652 45.6041ZM26.8582 45.5823H22.1849C21.9874 45.5823 21.8119 45.7783 21.8119 46.0179V62.0051C21.8119 62.4407 22.0971 62.5932 22.4701 62.5932H26.6827C27.1215 62.5932 27.2312 62.3972 27.2312 62.0051V45.9526C27.2312 45.7566 27.0556 45.5823 26.8582 45.5823ZM24.5544 38.2204C22.865 38.2204 21.5266 39.5491 21.5266 41.2262C21.5266 42.9033 22.865 44.232 24.5544 44.232C26.1999 44.232 27.5383 42.9033 27.5383 41.2262C27.5383 39.5491 26.1999 38.2204 24.5544 38.2204ZM60.7398 37.6759H56.1097C55.9122 37.6759 55.7367 37.8502 55.7367 38.0462V46.9546H48.4734V38.0462C48.4734 37.8502 48.2978 37.6759 48.1003 37.6759H43.4263C43.2288 37.6759 43.0533 37.8502 43.0533 38.0462V62.2448C43.0533 62.4408 43.2508 62.615 43.4263 62.615H48.1003C48.2978 62.615 48.4734 62.4408 48.4734 62.2448V51.8988H55.7367L55.6928 62.2448C55.6928 62.4408 55.8683 62.615 56.0658 62.615H60.7398C60.9373 62.615 61.1129 62.4408 61.1129 62.2448V38.0462C61.1129 37.8502 60.9373 37.6759 60.7398 37.6759ZM19.3323 48.3921V60.8943C19.3323 60.9814 19.3103 61.1339 19.2006 61.1774C19.2006 61.1774 16.4577 63.1159 11.9373 63.1159C6.47335 63.1159 0 61.417 0 50.2217C0 39.0263 5.66144 36.7175 11.1912 36.7393C15.9749 36.7393 17.906 37.8066 18.2132 38.0026C18.3009 38.1115 18.3448 38.1986 18.3448 38.3075L17.4232 42.1845C17.4232 42.3805 17.2257 42.6201 16.9843 42.5548C16.1944 42.3152 15.0094 41.836 12.2226 41.836C8.99686 41.836 5.52978 42.7508 5.52978 49.9603C5.52978 57.1698 8.82132 58.0192 11.1912 58.0192C13.21 58.0192 13.9342 57.7796 13.9342 57.7796V52.77H10.7085C10.4671 52.77 10.2915 52.5958 10.2915 52.3997V48.3921C10.2915 48.196 10.4671 48.0218 10.7085 48.0218H18.9154C19.1567 48.0218 19.3323 48.196 19.3323 48.3921Z" fill="black"/>
<path fill-rule="evenodd" clip-rule="evenodd" d="M48.9999 0C39.4601 0 31.7333 7.56386 31.7333 16.9025C31.7333 24.3818 36.6759 30.6991 43.5394 32.9387C44.4027 33.0866 44.7264 32.5795 44.7264 32.1359C44.7264 31.7344 44.7049 30.4033 44.7049 28.9878C40.3666 29.7695 39.2443 27.9525 38.8989 27.0017C38.7047 26.5158 37.8629 25.0157 37.1291 24.6142C36.5248 24.2973 35.6614 23.5156 37.1075 23.4945C38.4673 23.4733 39.4385 24.7199 39.7623 25.227C41.3163 27.7835 43.7984 27.0651 44.7912 26.6214C44.9423 25.5228 45.3955 24.7833 45.8919 24.3607C42.0501 23.9381 38.0356 22.4803 38.0356 16.0151C38.0356 14.177 38.7047 12.6557 39.8054 11.4726C39.6328 11.05 39.0284 9.3175 39.9781 6.9934C39.9781 6.9934 41.4242 6.54971 44.7264 8.72591C46.1078 8.3456 47.5754 8.15545 49.0431 8.15545C50.5108 8.15545 51.9784 8.3456 53.3598 8.72591C56.662 6.52859 58.1081 6.9934 58.1081 6.9934C59.0578 9.3175 58.4534 11.05 58.2808 11.4726C59.3815 12.6557 60.0506 14.1558 60.0506 16.0151C60.0506 22.5014 56.0145 23.9381 52.1727 24.3607C52.7986 24.8889 53.3382 25.9031 53.3382 27.4877C53.3382 29.7484 53.3166 31.5654 53.3166 32.1359C53.3166 32.5795 53.6404 33.1077 54.5037 32.9387C61.324 30.6991 66.2666 24.3607 66.2666 16.9025C66.2666 7.56386 58.5398 0 48.9999 0V0Z" fill="black"/>
</svg>
