<svg width="105" height="69" viewBox="0 0 105 69" fill="none" xmlns="http://www.w3.org/2000/svg">
<path fill-rule="evenodd" clip-rule="evenodd" d="M43.5658 62.1907H43.5188C43.54 62.1907 43.5541 62.2115 43.5752 62.2161C43.5776 62.2161 43.587 62.2138 43.5893 62.2138L43.5658 62.1907ZM43.5752 62.2161C43.3566 62.2184 42.8064 62.3295 42.2257 62.3295C40.3918 62.3295 39.757 61.4972 39.757 60.4105V53.1735H43.4953C43.7069 53.1735 43.8715 52.9885 43.8715 52.7342V48.8036C43.8715 48.5955 43.6834 48.4105 43.4953 48.4105H39.757V43.5319C39.757 43.347 39.6395 43.2314 39.4279 43.2314H34.3495C34.1379 43.2314 34.0204 43.347 34.0204 43.5319V48.5493C34.0204 48.5493 31.4577 49.1735 31.2931 49.1967C31.105 49.2429 30.9875 49.4047 30.9875 49.5897V52.7342C30.9875 52.9885 31.1755 53.1735 31.3871 53.1735H33.9969V60.7573C33.9969 66.3989 37.9937 66.9769 40.721 66.9769C41.9671 66.9769 43.4718 66.5838 43.7069 66.4682C43.848 66.422 43.9185 66.2601 43.9185 66.0983V62.6301C43.9185 62.4012 43.7586 62.2485 43.5752 62.2161ZM99.2859 57.1273C99.2859 52.9424 97.5699 52.3874 95.7598 52.5724C94.3494 52.6649 93.221 53.3585 93.221 53.3585V61.4972C93.221 61.4972 94.3729 62.2833 96.0889 62.3296C98.5102 62.3989 99.2859 61.5435 99.2859 57.1273ZM105 56.7573C105 64.6879 102.39 66.9538 97.8292 66.9538C93.9734 66.9538 91.9044 65.0347 91.9044 65.0347C91.9044 65.0347 91.8103 66.0983 91.6928 66.237C91.6223 66.3757 91.5047 66.422 91.3636 66.422H87.884C87.6489 66.422 87.4373 66.237 87.4373 66.0289L87.4843 40.3412C87.4843 40.1331 87.6724 39.9481 87.884 39.9481H92.8918C93.1034 39.9481 93.2915 40.1331 93.2915 40.3412V49.0579C93.2915 49.0579 95.2194 47.8325 98.0408 47.8325L98.0172 47.7862C100.839 47.7862 105 48.8267 105 56.7573ZM84.4984 48.4105H79.5611C79.3025 48.4105 79.1614 48.5955 79.1614 48.8498V61.4278C79.1614 61.4278 77.8683 62.3295 76.105 62.3295C74.3417 62.3295 73.8244 61.5434 73.8244 59.8093V48.8267C73.8244 48.6186 73.6364 48.4336 73.4248 48.4336H68.3934C68.1818 48.4336 67.9937 48.6186 67.9937 48.8267V60.6417C67.9937 65.7283 70.8856 67 74.8589 67C78.127 67 80.7837 65.2197 80.7837 65.2197C80.7837 65.2197 80.9013 66.1214 80.9718 66.2601C81.0188 66.3757 81.1834 66.4682 81.348 66.4682H84.4984C84.757 66.4682 84.8981 66.2832 84.8981 66.0751L84.9451 48.8036C84.9451 48.5955 84.757 48.4105 84.4984 48.4105ZM28.7766 48.3874H23.7695C23.558 48.3874 23.3699 48.5955 23.3699 48.8498V65.8208C23.3699 66.2832 23.6755 66.4451 24.0751 66.4451H28.5886C29.0587 66.4451 29.1763 66.237 29.1763 65.8208V48.7804C29.1763 48.5723 28.9882 48.3874 28.7766 48.3874ZM26.3083 40.5725C24.4982 40.5725 23.0643 41.9829 23.0643 43.7632C23.0643 45.5435 24.4982 46.9539 26.3083 46.9539C28.0713 46.9539 29.5053 45.5435 29.5053 43.7632C29.5053 41.9829 28.0713 40.5725 26.3083 40.5725ZM65.0784 39.9944H60.1176C59.906 39.9944 59.7179 40.1794 59.7179 40.3875V49.8441H51.9357V40.3875C51.9357 40.1794 51.7477 39.9944 51.5361 39.9944H46.5282C46.3166 39.9944 46.1285 40.1794 46.1285 40.3875V66.0752C46.1285 66.2833 46.3401 66.4683 46.5282 66.4683H51.5361C51.7477 66.4683 51.9357 66.2833 51.9357 66.0752V55.0926H59.7179L59.6709 66.0752C59.6709 66.2833 59.8589 66.4683 60.0705 66.4683H65.0784C65.29 66.4683 65.4781 66.2833 65.4781 66.0752V40.3875C65.4781 40.1794 65.29 39.9944 65.0784 39.9944ZM20.7132 51.37V64.6416C20.7132 64.7341 20.6897 64.896 20.5721 64.9422C20.5721 64.9422 17.6332 67 12.79 67C6.93574 67 0 65.1965 0 53.3122C0 41.4279 6.06583 38.977 11.9906 39.0002C17.116 39.0002 19.185 40.1331 19.5141 40.3412C19.6081 40.4568 19.6552 40.5493 19.6552 40.6649L18.6677 44.7805C18.6677 44.9886 18.4561 45.2429 18.1975 45.1735C17.3511 44.9192 16.0815 44.4105 13.0956 44.4105C9.6395 44.4105 5.92476 45.3816 5.92476 53.0348C5.92476 60.6879 9.45141 61.5896 11.9906 61.5896C14.1536 61.5896 14.9295 61.3353 14.9295 61.3353V56.0174H11.4734C11.2147 56.0174 11.0266 55.8324 11.0266 55.6243V51.37C11.0266 51.1619 11.2147 50.977 11.4734 50.977H20.2665C20.5251 50.977 20.7132 51.1619 20.7132 51.37Z" fill="black"/>
<path fill-rule="evenodd" clip-rule="evenodd" d="M52.5 0C42.2787 0 34 8.02933 34 17.9426C34 25.8823 39.2956 32.5883 46.6494 34.9657C47.5744 35.1227 47.9213 34.5844 47.9213 34.1135C47.9213 33.6873 47.8981 32.2743 47.8981 30.7716C43.25 31.6015 42.0475 29.6726 41.6775 28.6634C41.4694 28.1475 40.5675 26.5551 39.7812 26.129C39.1337 25.7925 38.2087 24.9627 39.7581 24.9403C41.215 24.9178 42.2556 26.2411 42.6025 26.7794C44.2675 29.4932 46.9269 28.7307 47.9906 28.2597C48.1525 27.0934 48.6381 26.3084 49.17 25.8598C45.0538 25.4113 40.7525 23.8637 40.7525 17.0007C40.7525 15.0494 41.4694 13.4346 42.6487 12.1786C42.4637 11.73 41.8162 9.89088 42.8337 7.42377C42.8337 7.42377 44.3831 6.95277 47.9213 9.26289C49.4013 8.85918 50.9738 8.65732 52.5463 8.65732C54.1188 8.65732 55.6913 8.85918 57.1713 9.26289C60.7094 6.93035 62.2587 7.42377 62.2587 7.42377C63.2762 9.89088 62.6287 11.73 62.4437 12.1786C63.6231 13.4346 64.34 15.027 64.34 17.0007C64.34 23.8861 60.0156 25.4113 55.8994 25.8598C56.57 26.4205 57.1481 27.4971 57.1481 29.1792C57.1481 31.5791 57.125 33.5079 57.125 34.1135C57.125 34.5844 57.4719 35.1452 58.3969 34.9657C65.7044 32.5883 71 25.8598 71 17.9426C71 8.02933 62.7212 0 52.5 0V0Z" fill="black"/>
</svg>
